<svg viewBox="0 0 375 315" preserveAspectRatio="none" xmlns="http://www.w3.org/2000/svg"><g class="layer"><path d="M-51 553.75h1131V54.839c-34.637 11.644-70.334 19.269-106.526 23.219-79.099 8.803-159.754 1.664-237.015-13.446-2.404-.485-4.807-.971-7.21-1.386-82.563-16.635-163.783-40.895-245.71-63.907H-51V553.75z" fill="#CBCBCB"/><path d="M741.831 121.044c-2.262-.554-4.524-1.178-6.715-1.732C596.427 82.923 460.353 26.779 315.585-3.094 192.448-28.463 68.533-23.334-51 3.975V523.75h1131V125.272c-36.969 12.2-75.282 19.2-113.877 21.418-75.848 4.575-151.696-7.07-224.292-25.646z" fill="#D2D2D2"/><path d="M1080 494.75V197.122c-39.302 12.754-80.23 18.922-121.158 19.2-72.667.554-143.637-15.734-211.568-37.776-2.121-.693-4.17-1.386-6.291-2.079C611.201 133.493 482.479 75.201 343.436 43.318 211.463 13.028 77.439 19.474-50.929 52.051V494.75H1080z" fill="#DADADA"/><path d="M951.49 284.954c-69.415-4.159-135.649-24.398-198.844-49.975-1.979-.762-3.888-1.594-5.867-2.356-120.875-49.628-242.246-109.86-375.563-143.962C230.69 52.757 86.063 60.38-51 98.919V464.75h1131V268.457c-41.706 13.585-85.249 19.061-128.51 16.497z" fill="#E1E1E1"/><path d="M-51 434.75h1131v-94.473c-44.038 14.486-90.268 19.061-135.861 13.308-66.164-8.387-127.591-33.062-186.121-62.104-1.837-.901-3.605-1.802-5.442-2.703-111.969-56.213-225.988-118.455-353.65-154.706-148.797-42.28-304.522-33.963-449.997 11.506V434.75H-51z" fill="#E7E7E7"/><path d="M759.452 344.933C656.39 282.067 549.723 218.092 427.787 179.484c-147.454-46.716-304.876-42.142-450.916 3.674-9.048 2.842-17.955 5.822-26.932 8.941V404.75h927.42c-39.585-14.763-76.837-35.072-112.888-56.836-1.696-.971-3.322-2.01-5.019-2.981z" fill="#EDEDED"/><path d="M-50.999 374.75h778.977c-83.482-59.47-172.124-114.019-273.42-149.854-135.578-47.964-282.75-51.776-420.59-14.625-28.841 7.763-57.328 17.467-85.037 28.904V374.75h.07z" fill="#F3F3F3"/><path d="M92.136 238.454c-33.364 7.347-66.163 17.536-97.972 30.359-15.34 6.169-30.396 13.031-45.17 20.447v56.49h676.197c-44.463-28.903-91.682-54.202-142.86-74.442-123.632-49.003-260.624-61.48-390.195-32.854z" fill="#F9F9F9"/><path d="M150.26 264.568C97.032 273.301 45.006 290.283-2.991 314.75H508.08c-111.474-49.212-237.227-70.006-357.82-50.182z" fill="#fff"/></g></svg>
